
<svg xmlns="http://www.w3.org/2000/svg" version="1.1" width="174" height="26" viewBox="0 0 174 26" fill="none" style="shape-rendering:geometricPrecision; text-rendering:geometricPrecision; image-rendering:optimizeQuality; fill-rule:evenodd; clip-rule:evenodd" xmlns:xlink="http://www.w3.org/1999/xlink">
<g><path style="opacity:1" fill="#fefefe" d="M -0.5,-0.5 C 166.167,-0.5 332.833,-0.5 499.5,-0.5C 499.5,166.167 499.5,332.833 499.5,499.5C 332.833,499.5 166.167,499.5 -0.5,499.5C -0.5,332.833 -0.5,166.167 -0.5,-0.5 Z"/></g>
<g><path style="opacity:1" fill="#6625eb" d="M 167.5,124.5 C 221.834,124.333 276.168,124.5 330.5,125C 337.237,126.736 341.737,130.903 344,137.5C 344.667,151.5 344.667,165.5 344,179.5C 341.76,186.739 336.926,191.239 329.5,193C 275.833,193.667 222.167,193.667 168.5,193C 163.005,191.013 158.839,187.513 156,182.5C 154.88,174.406 154.38,166.24 154.5,158C 154.667,150.833 154.833,143.667 155,136.5C 157.769,130.895 161.936,126.895 167.5,124.5 Z"/></g>
<g><path style="opacity:1" fill="#fdfdfe" d="M 169.5,127.5 C 222.834,127.333 276.168,127.5 329.5,128C 335.333,129.833 339.167,133.667 341,139.5C 341.5,147.827 341.666,156.16 341.5,164.5C 280.167,164.5 218.833,164.5 157.5,164.5C 157.334,155.827 157.5,147.16 158,138.5C 160.437,133.226 164.271,129.56 169.5,127.5 Z"/></g>
<g><path style="opacity:1" fill="#7133ed" d="M 170.5,139.5 C 182.838,139.333 195.171,139.5 207.5,140C 208,140.5 208.5,141 209,141.5C 209.667,146.167 209.667,150.833 209,155.5C 208.5,156 208,156.5 207.5,157C 194.833,157.667 182.167,157.667 169.5,157C 168.363,151.918 168.196,146.751 169,141.5C 169.717,140.956 170.217,140.289 170.5,139.5 Z"/></g>
<g><path style="opacity:1" fill="#fefffe" d="M 172.5,143.5 C 183.5,143.5 194.5,143.5 205.5,143.5C 205.5,146.833 205.5,150.167 205.5,153.5C 194.5,153.5 183.5,153.5 172.5,153.5C 172.5,150.167 172.5,146.833 172.5,143.5 Z"/></g>
<g><path style="opacity:1" fill="#ceb7f9" d="M 172.5,143.5 C 172.5,146.833 172.5,150.167 172.5,153.5C 183.5,153.5 194.5,153.5 205.5,153.5C 194.346,154.495 183.012,154.828 171.5,154.5C 171.185,150.629 171.518,146.962 172.5,143.5 Z"/></g>
<g><path style="opacity:1" fill="#d6c5fa" d="M 157.5,168.5 C 218.664,167.501 279.998,167.168 341.5,167.5C 341.815,171.371 341.482,175.038 340.5,178.5C 340.5,175.167 340.5,171.833 340.5,168.5C 279.5,168.5 218.5,168.5 157.5,168.5 Z"/></g>
<g><path style="opacity:1" fill="#faf8fe" d="M 157.5,168.5 C 218.5,168.5 279.5,168.5 340.5,168.5C 340.5,171.833 340.5,175.167 340.5,178.5C 339.34,183.484 336.34,186.818 331.5,188.5C 330.805,184.287 330.139,180.121 329.5,176C 276.167,175.333 222.833,175.333 169.5,176C 168.536,180.066 168.203,184.233 168.5,188.5C 162.953,187.456 159.453,184.123 158,178.5C 157.502,175.183 157.335,171.85 157.5,168.5 Z"/></g>
<g><path style="opacity:1" fill="#d3c0f9" d="M 326.5,182.5 C 326.5,181.5 326.5,180.5 326.5,179.5C 275.167,179.5 223.833,179.5 172.5,179.5C 172.5,180.5 172.5,181.5 172.5,182.5C 171.566,181.432 171.232,180.099 171.5,178.5C 223.5,178.5 275.5,178.5 327.5,178.5C 327.768,180.099 327.434,181.432 326.5,182.5 Z"/></g>
<g><path style="opacity:1" fill="#fefffe" d="M 326.5,182.5 C 275.167,182.5 223.833,182.5 172.5,182.5C 172.5,181.5 172.5,180.5 172.5,179.5C 223.833,179.5 275.167,179.5 326.5,179.5C 326.5,180.5 326.5,181.5 326.5,182.5 Z"/></g>
<g><path style="opacity:1" fill="#d3c0f9" d="M 326.5,189.5 C 326.5,188.5 326.5,187.5 326.5,186.5C 275.167,186.5 223.833,186.5 172.5,186.5C 172.5,187.5 172.5,188.5 172.5,189.5C 171.566,188.432 171.232,187.099 171.5,185.5C 223.5,185.5 275.5,185.5 327.5,185.5C 327.768,187.099 327.434,188.432 326.5,189.5 Z"/></g>
<g><path style="opacity:1" fill="#fefffe" d="M 326.5,189.5 C 275.167,189.5 223.833,189.5 172.5,189.5C 172.5,188.5 172.5,187.5 172.5,186.5C 223.833,186.5 275.167,186.5 326.5,186.5C 326.5,187.5 326.5,188.5 326.5,189.5 Z"/></g>
<g><path style="opacity:1" fill="#6e2fec" d="M 194.5,199.5 C 198.568,199.931 200.568,202.264 200.5,206.5C 199.817,210.199 198.317,213.532 196,216.5C 195.555,220.614 196.055,224.614 197.5,228.5C 197.333,229.833 197.167,231.167 197,232.5C 195.455,233.821 194.289,233.488 193.5,231.5C 194.022,230.393 194.355,229.226 194.5,228C 193.096,225.349 192.096,222.515 191.5,219.5C 192.704,214.762 194.704,210.428 197.5,206.5C 196.023,204.361 195.023,202.028 194.5,199.5 Z"/></g>
<g><path style="opacity:1" fill="#6d2eec" d="M 221.5,198.5 C 224.859,200.361 226.859,203.195 227.5,207C 225.64,211.22 223.64,215.387 221.5,219.5C 223.193,222.06 224.193,224.894 224.5,228C 224.604,230.145 223.937,231.979 222.5,233.5C 220.227,232.309 219.893,230.642 221.5,228.5C 220.063,225.462 219.063,222.296 218.5,219C 219.88,214.903 221.547,210.903 223.5,207C 223.417,204.667 222.417,202.834 220.5,201.5C 221.127,200.583 221.461,199.583 221.5,198.5 Z"/></g>
<g><path style="opacity:1" fill="#7134ed" d="M 248.5,198.5 C 256.153,204.045 256.32,210.045 249,216.5C 248.333,218.5 248.333,220.5 249,222.5C 252.468,226.194 252.301,229.528 248.5,232.5C 247.833,232.333 247.167,232.167 246.5,232C 247.097,230.938 247.43,229.772 247.5,228.5C 246.79,225.411 245.79,222.411 244.5,219.5C 246.243,215.016 248.243,210.683 250.5,206.5C 249.723,204.553 248.723,202.72 247.5,201C 247.743,200.098 248.077,199.265 248.5,198.5 Z"/></g>
<g><path style="opacity:1" fill="#6d2eec" d="M 274.5,199.5 C 278.568,199.931 280.568,202.264 280.5,206.5C 279.817,210.199 278.317,213.532 276,216.5C 275.555,220.614 276.055,224.614 277.5,228.5C 277.333,229.833 277.167,231.167 277,232.5C 275.455,233.821 274.289,233.488 273.5,231.5C 274.022,230.393 274.355,229.226 274.5,228C 273.096,225.349 272.096,222.515 271.5,219.5C 272.704,214.762 274.704,210.428 277.5,206.5C 276.023,204.361 275.023,202.028 274.5,199.5 Z"/></g>
<g><path style="opacity:1" fill="#6d2eec" d="M 301.5,198.5 C 304.676,200.335 306.676,203.002 307.5,206.5C 305.782,210.937 303.782,215.271 301.5,219.5C 303.193,222.06 304.193,224.894 304.5,228C 304.604,230.145 303.937,231.979 302.5,233.5C 300.227,232.309 299.893,230.642 301.5,228.5C 300.063,225.462 299.063,222.296 298.5,219C 300.023,214.786 301.689,210.619 303.5,206.5C 303.743,204.078 302.743,202.412 300.5,201.5C 301.127,200.583 301.461,199.583 301.5,198.5 Z"/></g>
<g><path style="opacity:1" fill="#242424" d="M 252.5,254.5 C 275.377,254.583 282.543,265.25 274,286.5C 271.43,288.869 268.596,290.869 265.5,292.5C 267.413,296.79 270.746,298.457 275.5,297.5C 275.5,298.833 275.5,300.167 275.5,301.5C 268.899,302.866 264.232,300.533 261.5,294.5C 243.442,292.263 236.609,282.263 241,264.5C 243.818,259.839 247.651,256.505 252.5,254.5 Z"/></g>
<g><path style="opacity:1" fill="#262626" d="M 382.5,254.5 C 400.272,252.931 408.772,260.931 408,278.5C 403.994,289.501 396.161,294.335 384.5,293C 372.569,288.647 367.736,280.147 370,267.5C 372.353,261.315 376.52,256.982 382.5,254.5 Z"/></g>
<g><path style="opacity:1" fill="#2c2c2c" d="M 89.5,254.5 C 99.5,254.5 109.5,254.5 119.5,254.5C 119.5,256.167 119.5,257.833 119.5,259.5C 115.5,259.5 111.5,259.5 107.5,259.5C 107.5,270.5 107.5,281.5 107.5,292.5C 105.833,292.5 104.167,292.5 102.5,292.5C 102.5,281.5 102.5,270.5 102.5,259.5C 98.1667,259.5 93.8333,259.5 89.5,259.5C 89.5,257.833 89.5,256.167 89.5,254.5 Z"/></g>
<g><path style="opacity:1" fill="#878787" d="M 144.5,255.5 C 138.833,255.5 133.167,255.5 127.5,255.5C 127.5,267.833 127.5,280.167 127.5,292.5C 126.505,280.011 126.171,267.344 126.5,254.5C 132.69,254.177 138.69,254.51 144.5,255.5 Z"/></g>
<g><path style="opacity:1" fill="#1f1f1f" d="M 144.5,255.5 C 154.162,258.842 156.662,265.175 152,274.5C 149.92,276.123 147.754,277.623 145.5,279C 148.5,283.333 151.5,287.667 154.5,292C 152.421,292.808 150.421,292.641 148.5,291.5C 145.833,287.5 143.167,283.5 140.5,279.5C 137.572,278.516 134.572,278.183 131.5,278.5C 131.5,283.167 131.5,287.833 131.5,292.5C 130.167,292.5 128.833,292.5 127.5,292.5C 127.5,280.167 127.5,267.833 127.5,255.5C 133.167,255.5 138.833,255.5 144.5,255.5 Z"/></g>
<g><path style="opacity:1" fill="#232323" d="M 174.5,254.5 C 176.144,254.286 177.644,254.62 179,255.5C 184.038,267.74 189.204,279.906 194.5,292C 192.833,292.667 191.167,292.667 189.5,292C 188.167,289.333 186.833,286.667 185.5,284C 179.5,283.333 173.5,283.333 167.5,284C 166.071,286.69 165.071,289.523 164.5,292.5C 162.833,292.5 161.167,292.5 159.5,292.5C 164.106,279.682 169.106,267.015 174.5,254.5 Z"/></g>
<g><path style="opacity:1" fill="#545454" d="M 205.5,255.5 C 204.167,255.5 202.833,255.5 201.5,255.5C 201.5,267.833 201.5,280.167 201.5,292.5C 200.505,280.011 200.171,267.344 200.5,254.5C 202.415,254.216 204.081,254.549 205.5,255.5 Z"/></g>
<g><path style="opacity:1" fill="#1f1f1f" d="M 205.5,255.5 C 212.079,264.325 218.413,273.325 224.5,282.5C 224.783,283.289 225.283,283.956 226,284.5C 226.5,274.839 226.666,265.172 226.5,255.5C 227.833,255.5 229.167,255.5 230.5,255.5C 230.5,267.833 230.5,280.167 230.5,292.5C 228.712,292.785 227.045,292.452 225.5,291.5C 218.754,282.341 212.254,273.008 206,263.5C 205.5,273.161 205.334,282.828 205.5,292.5C 204.167,292.5 202.833,292.5 201.5,292.5C 201.5,280.167 201.5,267.833 201.5,255.5C 202.833,255.5 204.167,255.5 205.5,255.5 Z"/></g>
<g><path style="opacity:1" fill="#848484" d="M 230.5,255.5 C 229.167,255.5 227.833,255.5 226.5,255.5C 226.666,265.172 226.5,274.839 226,284.5C 225.283,283.956 224.783,283.289 224.5,282.5C 225.494,273.348 225.827,264.015 225.5,254.5C 227.415,254.216 229.081,254.549 230.5,255.5 Z"/></g>
<g><path style="opacity:1" fill="#222222" d="M 286.5,255.5 C 287.833,255.5 289.167,255.5 290.5,255.5C 290.174,264.017 290.507,272.35 291.5,280.5C 293.062,286.895 297.062,289.395 303.5,288C 305.848,287.654 307.681,286.487 309,284.5C 310.449,274.605 310.949,264.605 310.5,254.5C 312.167,254.5 313.833,254.5 315.5,254.5C 315.923,264.58 315.423,274.58 314,284.5C 311.464,290.355 306.964,293.022 300.5,292.5C 294.646,293.157 290.48,290.824 288,285.5C 286.605,275.566 286.105,265.566 286.5,255.5 Z"/></g>
<g><path style="opacity:1" fill="#8e8e8e" d="M 286.5,255.5 C 287.919,254.549 289.585,254.216 291.5,254.5C 291.5,263.167 291.5,271.833 291.5,280.5C 290.507,272.35 290.174,264.017 290.5,255.5C 289.167,255.5 287.833,255.5 286.5,255.5 Z"/></g>
<g><path style="opacity:1" fill="#2b2b2b" d="M 325.5,254.5 C 327.167,254.5 328.833,254.5 330.5,254.5C 330.5,267.167 330.5,279.833 330.5,292.5C 328.833,292.5 327.167,292.5 325.5,292.5C 325.5,279.833 325.5,267.167 325.5,254.5 Z"/></g>
<g><path style="opacity:1" fill="#1b1b1b" d="M 341.5,255.5 C 342.833,255.5 344.167,255.5 345.5,255.5C 345.5,266.5 345.5,277.5 345.5,288.5C 351.833,288.5 358.167,288.5 364.5,288.5C 364.5,289.833 364.5,291.167 364.5,292.5C 356.833,292.5 349.167,292.5 341.5,292.5C 341.5,280.167 341.5,267.833 341.5,255.5 Z"/></g>
<g><path style="opacity:1" fill="#6a6a6a" d="M 341.5,255.5 C 342.919,254.549 344.585,254.216 346.5,254.5C 346.5,265.5 346.5,276.5 346.5,287.5C 352.69,287.177 358.69,287.51 364.5,288.5C 358.167,288.5 351.833,288.5 345.5,288.5C 345.5,277.5 345.5,266.5 345.5,255.5C 344.167,255.5 342.833,255.5 341.5,255.5 Z"/></g>
<g><path style="opacity:1" fill="#f9f9f9" d="M 131.5,259.5 C 135.846,259.334 140.179,259.501 144.5,260C 149.626,262.553 150.793,266.386 148,271.5C 147.097,272.701 145.931,273.535 144.5,274C 140.179,274.499 135.846,274.666 131.5,274.5C 131.5,269.5 131.5,264.5 131.5,259.5 Z"/></g>
<g><path style="opacity:1" fill="#fafafa" d="M 252.5,259.5 C 266.738,257.339 273.572,263.339 273,277.5C 269.608,286.614 263.108,290.114 253.5,288C 245.085,283.652 242.252,276.819 245,267.5C 247.028,264.308 249.528,261.641 252.5,259.5 Z"/></g>
<g><path style="opacity:1" fill="#fafafa" d="M 382.5,259.5 C 400.124,258.11 406.291,265.776 401,282.5C 394.172,289.374 386.672,290.208 378.5,285C 372.043,275.093 373.377,266.593 382.5,259.5 Z"/></g>
<g><path style="opacity:1" fill="#f4f4f4" d="M 175.5,262.5 C 176.75,262.577 177.583,263.244 178,264.5C 179.942,269.497 181.776,274.497 183.5,279.5C 178.786,279.827 174.12,279.493 169.5,278.5C 171.707,273.209 173.707,267.875 175.5,262.5 Z"/></g>
<g><path style="opacity:1" fill="#242424" d="M 155.5,312.5 C 163.148,311.307 165.148,311.307 161.5,312.5C 161.167,331.167 160.833,331.167 160.5,312.5C 158.833,312.5 157.167,312.5 155.5,312.5 Z"/></g>
<g><path style="opacity:1" fill="#292929" d="M 173.5,311.5 C 176.518,311.335 179.518,311.502 182.5,312C 179.854,312.497 177.187,312.664 174.5,312.5C 174.5,314.5 174.5,316.5 174.5,318.5C 183.833,318.833 183.833,319.167 174.5,319.5C 174.5,321.5 174.5,323.5 174.5,325.5C 177.187,325.336 179.854,325.503 182.5,326C 179.518,326.498 176.518,326.665 173.5,326.5C 173.5,321.5 173.5,316.5 173.5,311.5 Z"/></g>
<g><path style="opacity:1" fill="#595959" d="M 211.5,311.5 C 213.308,312.918 213.975,314.918 213.5,317.5C 216.5,317.5 219.5,317.5 222.5,317.5C 223.846,319.268 223.846,319.935 222.5,319.5C 219.5,319.5 216.5,319.5 213.5,319.5C 213.808,321.924 213.474,324.257 212.5,326.5C 211.506,321.544 211.173,316.544 211.5,311.5 Z"/></g>
<g><path style="opacity:1" fill="#272727" d="M 237.5,318.5 C 239.451,319.716 240.951,321.382 242,323.5C 242.333,319.5 242.667,315.5 243,311.5C 243.667,316.5 243.667,321.5 243,326.5C 240.406,324.296 238.572,321.63 237.5,318.5 Z"/></g>
<g><path style="opacity:1" fill="#8d8d8d" d="M 275.5,311.5 C 274.513,316.305 274.179,321.305 274.5,326.5C 273.185,321.32 273.185,315.986 274.5,310.5C 275.107,310.624 275.44,310.957 275.5,311.5 Z"/></g>
<g><path style="opacity:1" fill="#4b4b4b" d="M 293.5,310.5 C 302.207,310.037 305.707,314.037 304,322.5C 301.045,326.277 297.212,327.443 292.5,326C 286.953,320.45 287.286,315.284 293.5,310.5 Z"/></g>
<g><path style="opacity:1" fill="#4e4e4e" d="M 313.5,313.5 C 317.751,309.433 321.751,309.933 325.5,315C 323.334,314.077 321.001,313.244 318.5,312.5C 316.793,312.728 315.126,313.062 313.5,313.5 Z"/></g>
<g><path style="opacity:1" fill="#f9f9f9" d="M 293.5,312.5 C 301.166,311.668 303.999,315.002 302,322.5C 298.333,326.5 294.667,326.5 291,322.5C 289.861,318.579 290.695,315.246 293.5,312.5 Z"/></g>
<g><path style="opacity:1" fill="#424242" d="M 190.5,315.5 C 192.812,310.527 196.479,309.36 201.5,312C 204.085,315.837 203.751,316.171 200.5,313C 196.579,311.861 193.246,312.695 190.5,315.5 Z"/></g>
<g><path style="opacity:1" fill="#515151" d="M 237.5,318.5 C 235.827,317.657 234.66,316.324 234,314.5C 233.827,318.541 233.327,322.541 232.5,326.5C 231.167,321.5 231.167,316.5 232.5,311.5C 234.91,313.326 236.577,315.66 237.5,318.5 Z"/></g>
<g><path style="opacity:1" fill="#333333" d="M 324.5,322.5 C 324.5,321.5 324.5,320.5 324.5,319.5C 322.473,319.662 320.473,319.495 318.5,319C 321.146,318.503 323.813,318.336 326.5,318.5C 326.771,320.38 326.104,321.713 324.5,322.5 Z"/></g>
<g><path style="opacity:1" fill="#454545" d="M 190.5,315.5 C 191.54,326.053 196.206,328.22 204.5,322C 201.972,326.141 198.305,327.474 193.5,326C 191.667,325.5 190.5,324.333 190,322.5C 189.204,319.961 189.371,317.628 190.5,315.5 Z"/></g>
<g><path style="opacity:1" fill="#3c3c3c" d="M 331.5,312.5 C 331.56,311.957 331.893,311.624 332.5,311.5C 334.412,313.657 336.079,315.991 337.5,318.5C 344.456,309.078 344.956,309.412 339,319.5C 338.479,327.834 337.813,328.167 337,320.5C 335.391,317.593 333.558,314.927 331.5,312.5 Z"/></g>
<g><path style="opacity:1" fill="#424242" d="M 265.5,315.5 C 267.991,324.182 264.657,327.682 255.5,326C 248.689,320.67 249.023,315.67 256.5,311C 260.923,309.878 263.923,311.378 265.5,315.5 Z"/></g>
<g><path style="opacity:1" fill="#f4f4f4" d="M 265.5,315.5 C 265.938,324.523 262.105,327.189 254,323.5C 250.919,315.246 253.752,311.746 262.5,313C 263.373,314.045 264.373,314.878 265.5,315.5 Z"/></g>
<g><path style="opacity:1" fill="#464646" d="M 313.5,313.5 C 311.11,324.46 314.776,327.46 324.5,322.5C 324.489,324.017 323.823,325.184 322.5,326C 313.884,327.717 310.051,324.217 311,315.5C 311.708,314.619 312.542,313.953 313.5,313.5 Z"/></g>
<g><path style="opacity:1" fill="#292929" d="M 275.5,311.5 C 275.5,316.167 275.5,320.833 275.5,325.5C 277.857,325.337 280.19,325.503 282.5,326C 279.854,326.497 277.187,326.664 274.5,326.5C 274.179,321.305 274.513,316.305 275.5,311.5 Z"/></g>
<g><path style="opacity:1" fill="#525252" d="M 146.5,354.5 C 148.334,351.761 150.668,350.427 153.5,350.5C 151.161,351.418 149.661,353.084 149,355.5C 148.329,354.748 147.496,354.414 146.5,354.5 Z"/></g>
<g><path style="opacity:1" fill="#545454" d="M 351.5,352.5 C 345.833,352.167 343.167,354.833 343.5,360.5C 341.853,357.248 342.52,354.414 345.5,352C 347.712,351.211 349.712,351.378 351.5,352.5 Z"/></g>
<g><path style="opacity:1" fill="#fafafa" d="M 351.5,352.5 C 353.391,354.836 353.891,357.502 353,360.5C 349.836,363.112 346.669,363.112 343.5,360.5C 343.167,354.833 345.833,352.167 351.5,352.5 Z"/></g>
<g><path style="opacity:1" fill="#5b5b5b" d="M 146.5,354.5 C 145.859,355.482 145.193,356.482 144.5,357.5C 145.833,358.62 146.333,359.953 146,361.5C 141.54,358.374 141.706,356.041 146.5,354.5 Z"/></g>
<g><path style="opacity:1" fill="#636363" d="M 351.5,352.5 C 355.571,354.435 356.404,357.435 354,361.5C 349.834,365.733 346.334,365.399 343.5,360.5C 346.669,363.112 349.836,363.112 353,360.5C 353.891,357.502 353.391,354.836 351.5,352.5 Z"/></g>
<g><path style="opacity:1" fill="#6a6a6a" d="M 158.5,367.5 C 156.762,365.881 156.262,363.881 157,361.5C 162.037,360.198 164.371,362.198 164,367.5C 163.667,367.833 163.333,368.167 163,368.5C 163.107,365.443 161.94,363.109 159.5,361.5C 158.5,361.833 157.833,362.5 157.5,363.5C 158.246,364.736 158.579,366.07 158.5,367.5 Z"/></g>
<g><path style="opacity:1" fill="#737373" d="M 334.5,365.5 C 335.882,363.102 337.549,362.935 339.5,365C 337.866,365.494 336.199,365.66 334.5,365.5 Z"/></g>
<g><path style="opacity:1" fill="#717171" d="M 153.5,370.5 C 151.102,369.118 150.935,367.451 153,365.5C 153.494,367.134 153.66,368.801 153.5,370.5 Z"/></g>
<g><path style="opacity:1" fill="#606060" d="M 334.5,365.5 C 332.913,367.619 333.246,369.286 335.5,370.5C 338.163,368.379 340.996,367.713 344,368.5C 345.167,374 343,376.167 337.5,375C 341.305,375.026 343.305,373.192 343.5,369.5C 340.174,370.345 336.84,370.845 333.5,371C 332.02,368.765 332.353,366.932 334.5,365.5 Z"/></g>
<g><path style="opacity:1" fill="#5b5b5b" d="M 158.5,367.5 C 160.008,370.08 159.341,372.08 156.5,373.5C 155.145,372.812 154.145,371.812 153.5,370.5C 155.117,371.038 156.784,371.371 158.5,371.5C 158.5,370.167 158.5,368.833 158.5,367.5 Z"/></g>
<g><path style="opacity:1" fill="#5f5f5f" d="M 170.5,373.5 C 170.288,371.616 169.288,370.283 167.5,369.5C 167.833,369.167 168.167,368.833 168.5,368.5C 170.984,370.483 173.317,372.65 175.5,375C 173.811,374.866 172.144,374.366 170.5,373.5 Z"/></g>
<g><path style="opacity:1" fill="#5f5f5f" d="M 170.5,373.5 C 168.949,376.563 166.782,379.229 164,381.5C 165.114,378.195 167.281,375.528 170.5,373.5 Z"/></g>
<g><path style="opacity:1" fill="#565656" d="M 332.5,379.5 C 330.243,378.438 329.077,376.772 329,374.5C 330.802,375.789 331.969,377.456 332.5,379.5 Z"/></g>
<g><path style="opacity:1" fill="#515151" d="M 332.5,379.5 C 333.93,381.455 333.597,383.121 331.5,384.5C 332.038,382.883 332.371,381.216 332.5,379.5 Z"/></g>
<g><path style="opacity:1" fill="#7d7d7d" d="M 188.5,384.5 C 186.22,384.746 184.22,384.746 182.5,384.5C 184.678,381.962 186.678,381.962 188.5,384.5 Z"/></g>
<g><path style="opacity:1" fill="#6c6c6c" d="M 331.5,384.5 C 328.395,387.002 325.729,386.336 323.5,382.5C 324.574,381.92 325.574,382.42 326.5,384C 328.134,384.494 329.801,384.66 331.5,384.5 Z"/></g>
<g><path style="opacity:1" fill="#575757" d="M 313.5,392.5 C 312.522,392.189 311.855,391.522 311.5,390.5C 314.85,388.506 316.35,385.506 316,381.5C 316.329,386.011 318.496,389.178 322.5,391C 320.154,390.921 317.987,390.088 316,388.5C 314.519,389.471 313.685,390.804 313.5,392.5 Z"/></g>
<g><path style="opacity:1" fill="#626262" d="M 200.5,399.5 C 198.521,402.947 196.021,403.28 193,400.5C 191.377,393.814 193.877,390.314 200.5,390C 202.478,392.497 202.978,395.331 202,398.5C 201.617,399.056 201.117,399.389 200.5,399.5 Z"/></g>
<g><path style="opacity:1" fill="#fafafa" d="M 200.5,399.5 C 192.871,400.949 191.538,398.449 196.5,392C 198.112,391.28 199.612,391.446 201,392.5C 201.556,394.885 201.39,397.218 200.5,399.5 Z"/></g>
<g><path style="opacity:1" fill="#5a5a5a" d="M 299.5,394.5 C 296.639,391.775 297.306,389.942 301.5,389C 302.5,388.333 303.5,388.333 304.5,389C 301.293,389.572 299.626,391.405 299.5,394.5 Z"/></g>
<g><path style="opacity:1" fill="#505050" d="M 313.5,392.5 C 315.085,393.002 315.585,394.002 315,395.5C 313.961,394.756 313.461,393.756 313.5,392.5 Z"/></g>
<g><path style="opacity:1" fill="#616161" d="M 188.5,384.5 C 191.124,386.198 191.124,388.031 188.5,390C 185.956,391.092 183.289,391.759 180.5,392C 182.349,393.093 184.016,394.426 185.5,396C 182.643,395.558 180.31,394.058 178.5,391.5C 181.441,390.478 184.441,389.645 187.5,389C 188.38,387.644 188.714,386.144 188.5,384.5 Z"/></g>
<g><path style="opacity:1" fill="#565656" d="M 288.5,402.5 C 288.357,404.262 288.691,405.929 289.5,407.5C 289.154,408.696 288.654,408.696 288,407.5C 286.523,403.57 285.356,399.57 284.5,395.5C 286.342,395.277 288.175,394.943 290,394.5C 294.492,395.306 295.492,397.639 293,401.5C 291.644,402.38 290.144,402.714 288.5,402.5 Z"/></g>
<g><path style="opacity:1" fill="#616161" d="M 210.5,394.5 C 215.262,395.092 216.596,397.592 214.5,402C 212.336,402.914 210.336,404.081 208.5,405.5C 210.113,406.427 211.779,407.261 213.5,408C 210.528,408.288 207.861,407.455 205.5,405.5C 208.251,403.707 211.084,402.041 214,400.5C 214.308,396.633 212.641,395.633 209,397.5C 208.761,396.212 209.261,395.212 210.5,394.5 Z"/></g>
<g><path style="opacity:1" fill="#f3f3f3" d="M 288.5,402.5 C 285.376,399.41 285.876,397.076 290,395.5C 292.319,396.409 292.986,398.075 292,400.5C 290.698,401.085 289.531,401.751 288.5,402.5 Z"/></g>
<g><path style="opacity:1" fill="#616161" d="M 276.5,397.5 C 277.675,397.281 278.675,397.614 279.5,398.5C 277.659,399.23 275.825,399.897 274,400.5C 273.685,401.908 274.018,403.241 275,404.5C 276.726,403.424 278.559,403.257 280.5,404C 278.5,404.667 276.5,405.333 274.5,406C 275.337,407.011 275.67,408.178 275.5,409.5C 282.614,409.361 282.947,410.028 276.5,411.5C 275.833,411.167 275.167,410.833 274.5,410.5C 273.189,406.611 272.522,402.611 272.5,398.5C 274.099,398.768 275.432,398.434 276.5,397.5 Z"/></g>
<g><path style="opacity:1" fill="#595959" d="M 299.5,394.5 C 300.15,394.804 300.817,395.137 301.5,395.5C 303.078,394.36 304.744,393.86 306.5,394C 304.833,395.167 303.167,396.333 301.5,397.5C 301.865,398.902 302.699,399.902 304,400.5C 305.798,399.496 307.632,398.996 309.5,399C 303.367,404.415 300.034,402.915 299.5,394.5 Z"/></g>
<g><path style="opacity:1" fill="#565656" d="M 221.5,404.5 C 222.373,402.114 223.873,400.114 226,398.5C 225.573,401.121 224.073,403.121 221.5,404.5 Z"/></g>
<g><path style="opacity:1" fill="#5d5d5d" d="M 221.5,404.5 C 221.694,406.912 223.027,407.912 225.5,407.5C 225.312,405.897 225.812,404.563 227,403.5C 226.302,405.764 226.802,407.597 228.5,409C 227.069,409.465 225.903,410.299 225,411.5C 224.517,410.552 224.351,409.552 224.5,408.5C 222.345,408.628 220.345,408.128 218.5,407C 219.373,405.955 220.373,405.122 221.5,404.5 Z"/></g>
<g><path style="opacity:1" fill="#6a6a6a" d="M 265.5,401.5 C 267.582,402.585 267.916,404.085 266.5,406C 268.325,407.466 268.825,409.299 268,411.5C 265.435,413.179 262.602,413.846 259.5,413.5C 259.073,409.176 258.739,404.842 258.5,400.5C 261.059,400.198 263.393,400.532 265.5,401.5 Z"/></g>
<g><path style="opacity:1" fill="#f6f6f6" d="M 260.5,407.5 C 262.5,407.5 264.5,407.5 266.5,407.5C 266.5,408.833 266.5,410.167 266.5,411.5C 264.5,411.833 262.5,412.167 260.5,412.5C 260.5,410.833 260.5,409.167 260.5,407.5 Z"/></g>
<g><path style="opacity:1" fill="#f0f0f0" d="M 265.5,401.5 C 266.167,405.5 264.5,407.167 260.5,406.5C 260.5,404.833 260.5,403.167 260.5,401.5C 262.167,401.5 263.833,401.5 265.5,401.5 Z"/></g>
</svg>


